<svg width="958px" height="351px" viewBox="86 130 785 200" version="1.1" xmlns="http://www.w3.org/2000/svg" xmlns:xlink="http://www.w3.org/1999/xlink"><g fill="#fff" fill-rule="evenodd"><path d="M175.625 88c48.394 0 87.625 39.231 87.625 87.625s-39.231 87.625-87.625 87.625S88 224.019 88 175.625 127.231 88 175.625 88Zm-12.76 33.331c-36.6 0-66.272 29.671-66.272 66.272 0 7.745 1.329 15.18 3.77 22.088a47.987 47.987 0 0 1-.385-6.073c0-26.174 21.219-47.393 47.393-47.393 26.175 0 47.393 21.219 47.393 47.393 0 26.175-21.218 47.393-47.393 47.393-1.527 0-3.038-.072-4.53-.214a66.257 66.257 0 0 0 20.024 3.079c36.601 0 66.272-29.671 66.272-66.273 0-36.6-29.67-66.272-66.272-66.272Zm-26.951 63.799c-15.964 0-28.905 12.94-28.905 28.904a28.77 28.77 0 0 0 4.397 15.331 66.594 66.594 0 0 0 8.707 8.878 28.785 28.785 0 0 0 15.8 4.696c15.964 0 28.905-12.941 28.905-28.905 0-15.963-12.94-28.904-28.904-28.904ZM321.158 105.577v4.895H307.53c-1.08.137-1.872.455-2.378.954-.505.5-.8 1.255-.884 2.268v6.442l14.777.191v4.825l-14.777.19v6.457c.04 1.02.335 1.801.884 2.345.55.544 1.343.839 2.378.884h13.627v5.002l-13.627.564c-2.928-.025-5.089-.463-6.482-1.312-1.394-.85-2.278-2.267-2.652-4.254v-23.602c.254-2.235 1.138-3.89 2.652-4.966 1.513-1.076 3.674-1.583 6.482-1.522l13.627.639Zm3.342-.68h6.045v24.994c.219 3.602 2.746 5.403 7.58 5.403 4.836 0 7.363-1.801 7.581-5.403v-24.994h6.045v24.994c-.024 7.123-4.566 10.685-13.625 10.685-9.06 0-13.602-3.562-13.626-10.685v-24.994Zm33.972 0h5.901l8.588 28.238 8.588-28.238h5.901l4.222 35.488h-5.921l-2.852-25.185-7.265 25.185h-5.346l-7.265-25.185-2.851 25.185h-5.922l4.222-35.488Zm58.289.68v4.895h-13.627c-1.08.137-1.872.455-2.378.954-.505.5-.8 1.255-.884 2.268v6.442l14.777.191v4.825l-14.777.19v6.457c.04 1.02.335 1.801.884 2.345.55.544 1.343.839 2.378.884h13.627v5.002l-13.627.564c-2.928-.025-5.089-.463-6.482-1.312-1.394-.85-2.278-2.267-2.652-4.254v-23.602c.254-2.235 1.138-3.89 2.652-4.966 1.514-1.076 3.674-1.583 6.482-1.522l13.627.639Zm3.439-.68h26.292v5.479l-10.108.098v29.911h-6.077v-29.911H420.2v-5.577Zm29.55 0h4.853l16.202 25.376v-25.376h6.004v35.488h-4.862L455.844 115.2v25.185h-6.094v-35.488Zm53.51.68v4.895h-13.626c-1.08.137-1.872.455-2.378.954-.505.5-.8 1.255-.884 2.268v6.442l14.777.191v4.825l-14.777.19v6.457c.04 1.02.335 1.801.884 2.345.55.544 1.343.839 2.378.884h13.627v5.002l-13.627.564c-2.928-.025-5.089-.463-6.482-1.312-1.394-.85-2.278-2.267-2.652-4.254v-23.602c.254-2.235 1.138-3.89 2.652-4.966 1.514-1.076 3.674-1.583 6.482-1.522l13.627.639Zm3.24-.68h26.292v5.479l-10.108.098v29.911h-6.077v-29.911H506.5v-5.577ZM306.45 157.67h14.278l21.301 70.334 21.176-70.334H377.5l10.4 87.83h-14.336l-7.369-62.8-17.397 62.8H335l-17.5-62.45-7 62.45h-14.2l10.15-87.83Zm137.175 28.047c4.805 4.27 5.275 12.23 5.275 16.336 0 6.408-.9 16.915-19.9 16.915h-18.529c.152 6.393 1.49 10.705 4.016 12.936 2.009 1.877 5.854 2.922 11.536 3.135H447v8.681c-4.592.802-12.028 2.454-23.383 2.38-5.535-.054-16.409-.526-21.742-7.099-5.432-6.342-6.006-17.852-6.025-25.571v-.417c0-7.5.636-19.286 6.004-25.268 5.327-6.45 16.296-6.826 21.633-6.844l.523-.001c5.109 0 14.834.569 19.615 4.817ZM424 191.6c-5.251-.148-8.847 1.092-10.788 3.718-1.9 2.546-2.871 7.457-2.912 14.732h18.667c2.389-.207 4.133-.848 5.233-1.923 1.65-1.613 1.65-4.883 1.65-5.78 0-2.098-.225-6.534-3.156-8.688-1.934-1.456-4.832-2.142-8.694-2.059Zm40.94-9.884 2.153-17.856h11.544v17.856h16.173v11.899h-16.173l.003 30.5c.071 3.173.713 5.535 1.926 7.087 1.213 1.552 3.106 2.434 5.681 2.648l7.853.83v10.82h-12.094c-6.505-.223-11.14-1.976-13.905-5.26-2.767-3.16-4.134-8.535-4.101-16.125l.47-30.5h-10v-9.506l10.47-2.393Zm85.335 4c4.805 4.27 5.275 12.23 5.275 16.337 0 6.408-.9 16.915-19.9 16.915h-18.529c.152 6.393 1.49 10.705 4.016 12.936 2.009 1.877 5.854 2.922 11.536 3.135h20.977v8.681c-4.592.802-12.028 2.454-23.383 2.38-5.535-.054-16.409-.526-21.742-7.099-5.432-6.342-6.006-17.852-6.025-25.571v-.417c0-7.5.636-19.286 6.004-25.268 5.327-6.45 16.296-6.826 21.633-6.844l.523-.001c5.109 0 14.834.569 19.615 4.817ZM530.65 191.6c-5.251-.148-8.847 1.092-10.788 3.718-1.9 2.546-2.871 7.457-2.912 14.732h18.667c2.389-.207 4.133-.848 5.233-1.923 1.65-1.613 1.65-4.883 1.65-5.78 0-2.098-.225-6.534-3.156-8.688-1.934-1.456-4.832-2.142-8.694-2.059Zm85.65-3.589c4.18 4.74 6.248 13.237 6.2 25.489.184 11.644-1.783 20.03-5.9 25.159-5.973 7.194-16.242 7.433-22.271 7.441h-.579c-5.93 0-16.768-.517-22.45-7.441-4.147-4.703-6.23-13.089-6.25-25.159-.033-12.306 2.017-20.802 6.15-25.489 5.905-6.695 16.193-7.088 21.753-7.11h1.594c5.553.015 15.78.338 21.753 7.11Zm-22.197 4.49h-.506c-2.65.003-7.863.148-10.82 4.58-2.013 3.02-3.012 8.492-2.996 16.42.01 7.774 1.025 13.176 3.045 16.206 2.769 4.46 8.05 4.793 10.94 4.793h.373c2.949-.009 7.88-.207 10.76-4.793 2.007-3.304 2.965-8.706 2.876-16.207.023-7.892-.984-13.365-3.021-16.419-2.929-4.39-7.956-4.573-10.65-4.58Zm44.631-24.497c5.072-7.803 13.727-11.52 25.966-11.154 9.418 0 18.875 1.187 28.37 3.56v11.316c-21.539-2.506-34.185-2.221-37.937.855-8.52 5.513-7.934 21.072-8.002 28.868-.068 7.797-.041 25.034 7.588 29.02 7.64 4.1 20.22 1.413 28.111-1.149v-20.23h-17.722v-11.423a181.704 181.704 0 0 1 16.14-1.16 167.825 167.825 0 0 1 15.752.333v48.66h-11.07l-2.027-6.07c-8.273 4.637-16.674 6.86-25.203 6.67-9.088-.26-15.743-3.692-19.966-10.296-4.223-6.604-6.334-18.047-6.334-34.329-.097-15.693 2.015-26.85 6.334-33.471Zm117.049 17.49c3.973 3.178 6 8.346 6.077 15.506v44.5h-11.545l-2.495-6.894c-.864.762-11.29 7.604-23.319 7.604-4.21 0-7.738-1.017-11.046-3.71-3.3-2.788-5.155-7-5.155-12.5v-4.98c0-2.354.188-7.636 4.797-11.974 3.403-3.366 9.07-4.912 14.903-4.912h19.103c.063-7.469.063-10.747-2.704-13.1-1.845-1.57-5.311-2.44-10.399-2.608h-21.05v-8.566c10.028-2.7 18.976-2.951 23.52-2.96h1.621c4.698.012 12.293.278 17.692 4.594Zm-8.673 29.656-13.767.707c-3.304.275-5.849 1.136-7.635 2.582-1.825 1.525-2.744 3.73-2.758 6.613v2.967c.077 2.848 1.055 4.919 2.935 6.214 1.875 1.283 4.318 1.654 5.983 1.617 3.162.077 13.034-2.823 15.242-4.03v-16.67Zm32.71-33.434 2.153-17.856h11.544v17.856h16.173v11.899h-16.173l.003 30.5c.071 3.173.713 5.535 1.926 7.087 1.213 1.552 3.106 2.434 5.681 2.648l7.853.83v10.82h-12.094c-6.505-.223-11.14-1.976-13.905-5.26-2.767-3.16-4.134-8.535-4.101-16.125l.47-30.5h-10v-9.506l10.47-2.393Zm85.155 4c4.805 4.27 5.275 12.23 5.275 16.337 0 6.408-.9 16.915-19.9 16.915h-18.529c.152 6.393 1.49 10.705 4.016 12.936 2.009 1.877 5.854 2.922 11.536 3.135h20.977v8.681c-4.592.802-12.028 2.454-23.383 2.38-5.535-.054-16.409-.526-21.742-7.099-5.432-6.342-6.006-17.852-6.025-25.571v-.417c0-7.5.636-19.286 6.004-25.268 5.327-6.45 16.296-6.826 21.633-6.844l.523-.001c5.109 0 14.834.569 19.615 4.817ZM845.35 191.6c-5.251-.148-8.847 1.092-10.788 3.718-1.9 2.546-2.871 7.457-2.912 14.732h18.667c2.389-.207 4.133-.848 5.233-1.923 1.65-1.613 1.65-4.883 1.65-5.78 0-2.098-.225-6.534-3.156-8.688-1.934-1.456-4.832-2.142-8.694-2.059Z"/></g></svg>
